<?xml version="1.0" encoding="UTF-8"?>
<svg version="1.1" xmlns="http://www.w3.org/2000/svg" width="96" height="96">
<path d="M0 0 C0 3 0 3 -1.7578125 4.9453125 C-2.53898437 5.66460937 -3.32015625 6.38390625 -4.125 7.125 C-10.62742493 13.30316486 -10.62742493 13.30316486 -15 21 C-14.75322544 24.38433684 -13.51081583 26.99383744 -12 30 C-11.26675204 31.64401911 -10.53748 33.28981818 -9.8125 34.9375 C-9.46832031 35.66839844 -9.12414062 36.39929687 -8.76953125 37.15234375 C-8 39 -8 39 -8 41 C-10.31 41 -12.62 41 -15 41 C-16.65 37.37 -18.3 33.74 -20 30 C-22.12038635 32.61514317 -24.13091744 35.19637616 -26 38 C-26.66 38 -27.32 38 -28 38 C-29.32 35.36 -30.64 32.72 -32 30 C-33.98 33.63 -35.96 37.26 -38 41 C-39.32 41 -40.64 41 -42 41 C-41.2583731 36.17942512 -39.3133665 32.61982004 -36.9609375 28.40234375 C-35.8602729 25.65068225 -35.8917417 24.70103154 -37 22 C-38.28796166 19.97048465 -39.61558 17.96498322 -41 16 C-41.391875 17.093125 -41.78375 18.18625 -42.1875 19.3125 C-43.27483579 21.76521177 -44.03732622 23.03615978 -46 24.9375 C-50.6887565 26.59810126 -55.04565803 26.1790726 -60 26 C-60 30.95 -60 35.9 -60 41 C-61.98 41 -63.96 41 -66 41 C-66 29.45 -66 17.9 -66 6 C-49.99253731 6 -49.99253731 6 -45 9 C-43.8671875 11.08203125 -43.8671875 11.08203125 -43 13 C-42.4225 13.144375 -41.845 13.28875 -41.25 13.4375 C-37.73719479 14.3157013 -35.68988327 16.61578528 -33 19 C-29.535 12.565 -29.535 12.565 -26 6 C-25.01 6 -24.02 6 -23 6 C-21.68 8.97 -20.36 11.94 -19 15 C-18.01 14.154375 -17.02 13.30875 -16 12.4375 C-15.36449219 11.89480469 -14.72898438 11.35210937 -14.07421875 10.79296875 C-12.66992603 9.5790886 -11.27692167 8.35204669 -9.89453125 7.11328125 C-9.20746094 6.49839844 -8.52039063 5.88351563 -7.8125 5.25 C-7.17957031 4.67765625 -6.54664063 4.1053125 -5.89453125 3.515625 C-4.01117215 2.00893772 -2.19147047 0.99126381 0 0 Z M-60 10 C-60 14.29 -60 18.58 -60 23 C-54.56598533 23.59662613 -54.56598533 23.59662613 -49.9375 21.375 C-48.65547882 18.12721302 -48.94456438 16.30703161 -50 13 C-51.59616005 10.99034226 -51.59616005 10.99034226 -54 10 C-55.98 10 -57.96 10 -60 10 Z M-27 16 C-28.62507196 18.8331162 -28.62507196 18.8331162 -30 22 C-29.67 22.99 -29.34 23.98 -29 25 C-28.01 25.33 -27.02 25.66 -26 26 C-23.66224971 23.16426737 -23.66224971 23.16426737 -24.25 19.875 C-24.4975 18.92625 -24.745 17.9775 -25 17 C-25.66 16.67 -26.32 16.34 -27 16 Z " fill="#28A690" transform="translate(79,27)"/>
<path d="M0 0 C2.8296457 1.37424476 3.91168723 2.51660103 6 5 C6 6.32 6 7.64 6 9 C4.68 9.33 3.36 9.66 2 10 C1.319375 8.7934375 1.319375 8.7934375 0.625 7.5625 C-0.74725665 4.91143428 -0.74725665 4.91143428 -3 4 C-4.99960012 3.960008 -7.00047242 3.95653201 -9 4 C-9.66 5.32 -10.32 6.64 -11 8 C-8.22969371 10.97551416 -5.53943216 13.01446489 -2 15 C1.52491643 16.97739214 4.38954763 18.88047982 7 22 C7.45489027 25.1842319 7.7001909 26.98379303 7 30 C4.90642825 32.73327423 3.2943996 34.43909351 0.125 35.8125 C-5.7595389 36.33172402 -9.97240689 36.42790439 -15 33 C-16.875 29.8125 -16.875 29.8125 -18 27 C-16.35 26.67 -14.7 26.34 -13 26 C-12.814375 26.61875 -12.62875 27.2375 -12.4375 27.875 C-11.05566214 30.34176293 -11.05566214 30.34176293 -7.625 31.375 C-4.15167198 32.2804757 -4.15167198 32.2804757 -1.5625 31.125 C-1.046875 30.75375 -0.53125 30.3825 0 30 C0 28.02 0 26.04 0 24 C-0.72960937 23.73058594 -1.45921875 23.46117188 -2.2109375 23.18359375 C-4.92868564 22.03026366 -7.1827105 20.71167487 -9.625 19.0625 C-10.38039063 18.55847656 -11.13578125 18.05445312 -11.9140625 17.53515625 C-13.8472976 16.11238211 -15.48570254 14.8612263 -17 13 C-17.46068067 9.82642202 -17.69271255 8.01740891 -17 5 C-12.509278 -0.82580151 -7.05208433 -1.31638908 0 0 Z " fill="#6F1E4D" transform="translate(89,33)"/>
<path d="M0 0 C17.46428571 0 17.46428571 0 23.0625 4.75 C24.45607855 8.09458851 24.50328088 10.41412371 24 14 C21.8272578 16.63016161 20.05326212 18.47336894 17 20 C13.32984725 20.1377685 9.67388652 20.04271961 6 20 C6 24.95 6 29.9 6 35 C4.02 35 2.04 35 0 35 C0 23.45 0 11.9 0 0 Z M6 4 C6 8.29 6 12.58 6 17 C11.43401467 17.59662613 11.43401467 17.59662613 16.0625 15.375 C17.34452118 12.12721302 17.05543562 10.30703161 16 7 C14.40383995 4.99034226 14.40383995 4.99034226 12 4 C10.02 4 8.04 4 6 4 Z " fill="#6F1E4D" transform="translate(13,33)"/>
<path d="M0 0 C0 8.91 0 17.82 0 27 C-1.98 27 -3.96 27 -6 27 C-6 18.42 -6 9.84 -6 1 C-4 0 -4 0 0 0 Z " fill="#6F1E4D" transform="translate(6,41)"/>
<path d="M0 0 C0.99 0 1.98 0 3 0 C3.70180531 1.4096347 4.38593958 2.82807641 5.0625 4.25 C5.44535156 5.03890625 5.82820313 5.8278125 6.22265625 6.640625 C7.09821978 9.29811432 7.05970768 10.43903978 6 13 C3.9375 14.75 3.9375 14.75 2 16 C1.34 14.35 0.68 12.7 0 11 C-1.98 13.97 -1.98 13.97 -4 17 C-4.99 16.34 -5.98 15.68 -7 15 C-5.45454854 9.52067211 -2.84456788 4.88570819 0 0 Z " fill="#6E1F4D" transform="translate(53,33)"/>
<path d="M0 0 C3.39785555 1.69892777 4.19635324 5.57785712 5.625 8.9375 C5.94984375 9.67935547 6.2746875 10.42121094 6.609375 11.18554688 C9 16.72516741 9 16.72516741 9 19 C6.69 19 4.38 19 2 19 C-3.02166129 9.23469328 -3.02166129 9.23469328 -2.9375 4.4375 C-2 2 -2 2 0 0 Z " fill="#6E1E4D" transform="translate(62,49)"/>
<path d="M0 0 C0.66 0.33 1.32 0.66 2 1 C1.5188509 6.77378925 -0.18467181 10.95859836 -3 16 C-4.32 16 -5.64 16 -7 16 C-6.40165275 11.85701333 -4.99335715 8.81805623 -2.9375 5.1875 C-2.11572266 3.72376953 -2.11572266 3.72376953 -1.27734375 2.23046875 C-0.85582031 1.49441406 -0.43429688 0.75835937 0 0 Z " fill="#6E1E4D" transform="translate(44,52)"/>
<path d="M0 0 C1.2065625 0.0309375 1.2065625 0.0309375 2.4375 0.0625 C3.5625 3.8125 3.5625 3.8125 2.4375 6.0625 C0.7875 6.0625 -0.8625 6.0625 -2.5625 6.0625 C-2.94468767 4.40635343 -3.27645102 2.73792976 -3.5625 1.0625 C-2.5625 0.0625 -2.5625 0.0625 0 0 Z " fill="#6F1E4D" transform="translate(3.5625,27.9375)"/>
</svg>
