<?xml version="1.0" encoding="UTF-8"?>
<svg version="1.1" xmlns="http://www.w3.org/2000/svg" width="128" height="128">
<path d="M0 0 C42.24 0 84.48 0 128 0 C128 42.24 128 84.48 128 128 C85.76 128 43.52 128 0 128 C0 85.76 0 43.52 0 0 Z " fill="#3F5144" transform="translate(0,0)"/>
<path d="M0 0 C18.48 0 36.96 0 56 0 C51 5 51 5 49.40136719 6.56469727 C44.3876195 11.89203011 41.9987242 18.24626425 39.25 24.9375 C38.12261234 27.62134647 36.98497299 30.30081743 35.84765625 32.98046875 C35.54716873 33.69151764 35.24668121 34.40256653 34.93708801 35.13516235 C31.00516322 44.407276 26.83804518 53.57426416 22.6875 62.75 C21.57351202 65.21512302 20.45979682 67.68036896 19.34628296 70.14570618 C18.62801319 71.73591813 17.90945025 73.32599771 17.19058228 74.91593933 C14.31749355 81.27716656 11.48015758 87.65395336 8.66593933 94.04144287 C6.27609733 99.44636733 3.7377747 104.7613734 1 110 C0.67 110 0.34 110 0 110 C0 73.7 0 37.4 0 0 Z " fill="#FDFDFD" transform="translate(0,0)"/>
<path d="M0 0 C18.48 0 36.96 0 56 0 C56 35.97 56 71.94 56 109 C53.27677389 107.63838694 53.04863869 106.23640372 51.85546875 103.453125 C51.2214917 101.99084473 51.2214917 101.99084473 50.57470703 100.49902344 C49.88803955 98.89075684 49.88803955 98.89075684 49.1875 97.25 C48.18982671 94.94747243 47.19108678 92.6454068 46.19140625 90.34375 C45.66820801 89.13589844 45.14500977 87.92804688 44.60595703 86.68359375 C41.99732695 80.68273386 39.30841199 74.71769081 36.625 68.75 C35.80765326 66.92914534 34.9903066 65.10829065 34.17297363 63.28742981 C32.20138087 58.89614507 30.22752543 54.50587735 28.25341797 50.11572266 C26.80047718 46.88449333 25.34865799 43.65276177 23.8973999 40.42077637 C23.09547121 38.63588558 22.29215013 36.85162057 21.48876953 35.06738281 C19.41506896 30.44980931 17.34382671 25.83395033 15.37646484 21.16992188 C15.10869736 20.53634262 14.84092987 19.90276337 14.56504822 19.24998474 C13.82055874 17.48155724 13.08185249 15.71069829 12.34350586 13.93969727 C9.53820916 7.80148582 5.61918587 4.52832601 0 1 C0 0.67 0 0.34 0 0 Z " fill="#FDFDFD" transform="translate(72,0)"/>
<path d="M0 0 C3.0625 0.5625 3.0625 0.5625 5.03515625 2.6171875 C7.38198473 6.02664545 8.97404196 9.4436355 10.5625 13.25 C10.86583252 13.96043457 11.16916504 14.67086914 11.48168945 15.40283203 C13.43387152 19.99638588 15.34037862 24.60855561 17.15625 29.2578125 C17.80430312 30.90587863 18.47340248 32.54573092 19.15625 34.1796875 C21.01070443 38.64362425 22.55148355 42.70784374 23.0625 47.5625 C23.7225 47.5625 24.3825 47.5625 25.0625 47.5625 C25.40506836 48.32916992 25.74763672 49.09583984 26.10058594 49.88574219 C27.38304807 52.74422127 28.67363002 55.59885206 29.96972656 58.45117188 C30.52766817 59.68342761 31.08240549 60.91713964 31.63378906 62.15234375 C32.42958191 63.93354075 33.23810747 65.70903163 34.046875 67.484375 C34.52866211 68.55268555 35.01044922 69.62099609 35.50683594 70.72167969 C37.05903987 73.5561814 38.75453421 75.33913889 41.0625 77.5625 C41.0625 78.2225 41.0625 78.8825 41.0625 79.5625 C14.3325 79.5625 -12.3975 79.5625 -39.9375 79.5625 C-35.9375 71.5625 -31.9375 63.5625 -27.9375 55.5625 C-23.15364223 57.03844992 -18.74996087 58.96626506 -14.25 61.125 C-7.27552463 64.45295666 -1.39088722 67.12722401 6.36328125 64.90234375 C8.91357782 63.7109974 10.33120176 62.79801654 12.0625 60.5625 C12.99820126 56.10650802 13.01014605 52.01423259 12.0625 47.5625 C9.92382812 44.30080168 8.92044962 42.84226618 5.1875 41.625 C1.68571343 41.55496427 -0.65467371 42.39983236 -3.9375 43.5625 C-7.25 43.75 -7.25 43.75 -9.9375 43.5625 C-10.9375 42.5625 -10.9375 42.5625 -11 39 C-10.979375 37.865625 -10.95875 36.73125 -10.9375 35.5625 C-6.4825 33.0875 -6.4825 33.0875 -1.9375 30.5625 C-5.8975 28.9125 -9.8575 27.2625 -13.9375 25.5625 C-12.97266722 20.73833612 -11.53439663 16.94491576 -9.5625 12.5 C-9.25828125 11.79294922 -8.9540625 11.08589844 -8.640625 10.35742188 C-4.46490485 0.85498178 -4.46490485 0.85498178 0 0 Z " fill="#FAFBF9" transform="translate(63.9375,48.4375)"/>
<path d="M0 0 C3.0625 0.5625 3.0625 0.5625 5.03515625 2.6171875 C7.38198473 6.02664545 8.97404196 9.4436355 10.5625 13.25 C10.86583252 13.96043457 11.16916504 14.67086914 11.48168945 15.40283203 C13.43387152 19.99638588 15.34037862 24.60855561 17.15625 29.2578125 C17.80430312 30.90587863 18.47340248 32.54573092 19.15625 34.1796875 C21.01070443 38.64362425 22.55148355 42.70784374 23.0625 47.5625 C23.7225 47.5625 24.3825 47.5625 25.0625 47.5625 C26.13025224 49.52716413 27.12803465 51.53105359 28.0625 53.5625 C26.54773802 56.59202396 24.20881984 56.93343771 21.125 58.1875 C19.50271484 58.85652344 19.50271484 58.85652344 17.84765625 59.5390625 C15.0625 60.5625 15.0625 60.5625 13.0625 60.5625 C13.03671875 59.68207031 13.0109375 58.80164063 12.984375 57.89453125 C12.92765625 56.73308594 12.8709375 55.57164063 12.8125 54.375 C12.76609375 53.22644531 12.7196875 52.07789063 12.671875 50.89453125 C11.96488811 47.02876319 10.81950476 45.31950476 8.0625 42.5625 C3.37463535 41.03384848 0.58990914 41.9590426 -3.9375 43.5625 C-7.25 43.75 -7.25 43.75 -9.9375 43.5625 C-10.9375 42.5625 -10.9375 42.5625 -11 39 C-10.979375 37.865625 -10.95875 36.73125 -10.9375 35.5625 C-7.9675 33.9125 -4.9975 32.2625 -1.9375 30.5625 C-5.8975 28.9125 -9.8575 27.2625 -13.9375 25.5625 C-12.97266722 20.73833612 -11.53439663 16.94491576 -9.5625 12.5 C-9.10617188 11.43942383 -9.10617188 11.43942383 -8.640625 10.35742188 C-4.46490485 0.85498178 -4.46490485 0.85498178 0 0 Z " fill="#F9CA3C" transform="translate(63.9375,48.4375)"/>
<path d="M0 0 C3.0625 0.5625 3.0625 0.5625 5.0234375 2.6015625 C7.42582506 6.09008696 9.09441405 9.61532446 10.75 13.5 C11.05744141 14.19029297 11.36488281 14.88058594 11.68164062 15.59179688 C13.40711767 19.57511915 14.55182381 23.21153886 15.0625 27.5625 C14.12277344 27.76166016 14.12277344 27.76166016 13.1640625 27.96484375 C12.34679687 28.14144531 11.52953125 28.31804687 10.6875 28.5 C9.87539062 28.67402344 9.06328125 28.84804687 8.2265625 29.02734375 C6.033037 29.48580693 6.033037 29.48580693 4.0625 30.5625 C-2.60584624 30.63298992 -8.06969309 28.54495505 -13.9375 25.5625 C-13.25480485 20.84821322 -11.47758776 16.81686104 -9.5625 12.5 C-9.10617188 11.43942383 -9.10617188 11.43942383 -8.640625 10.35742188 C-4.46490485 0.85498178 -4.46490485 0.85498178 0 0 Z " fill="#F6F9F7" transform="translate(63.9375,48.4375)"/>
<path d="M0 0 C2.64892891 3.62555421 3.91493643 7.41149139 5.1875 11.6875 C5.53167969 12.82574219 5.87585938 13.96398437 6.23046875 15.13671875 C7 18 7 18 7 20 C7.66 20 8.32 20 9 20 C10.06775224 21.96466413 11.06553465 23.96855359 12 26 C10.48523802 29.02952396 8.14631984 29.37093771 5.0625 30.625 C3.98097656 31.07101563 2.89945313 31.51703125 1.78515625 31.9765625 C-1 33 -1 33 -3 33 C-3.02578125 32.11957031 -3.0515625 31.23914063 -3.078125 30.33203125 C-3.13484375 29.17058594 -3.1915625 28.00914063 -3.25 26.8125 C-3.29640625 25.66394531 -3.3428125 24.51539062 -3.390625 23.33203125 C-4.09761189 19.46626319 -5.24299524 17.75700476 -8 15 C-12.68786465 13.47134848 -15.47259086 14.3965426 -20 16 C-23.3125 16.1875 -23.3125 16.1875 -26 16 C-27 15 -27 15 -27.0625 11.4375 C-27.041875 10.303125 -27.02125 9.16875 -27 8 C-8.9573991 -1.71524664 -8.9573991 -1.71524664 0 0 Z M-14 4 C-14 4.66 -14 5.32 -14 6 C-15.98567708 6.48828125 -17.97135417 6.9765625 -19.95703125 7.46484375 C-21.65683202 7.91010705 -23.33301954 8.44433985 -25 9 C-24.67 10.65 -24.34 12.3 -24 14 C-22.35 14 -20.7 14 -19 14 C-18.67 13.34 -18.34 12.68 -18 12 C-16.08529156 11.86452535 -14.16781519 11.76779131 -12.25 11.6875 C-10.64898437 11.60048828 -10.64898437 11.60048828 -9.015625 11.51171875 C-6 12 -6 12 -3.65625 14.09375 C-1.70493343 17.51775832 -1.40837178 19.89279856 -1.25 23.8125 C-1.19328125 24.97394531 -1.1365625 26.13539062 -1.078125 27.33203125 C-1.05234375 28.21246094 -1.0265625 29.09289062 -1 30 C-0.67 28.68 -0.34 27.36 0 26 C2.31 26.33 4.62 26.66 7 27 C6.73350664 21.24374353 5.76854937 16.90935048 2.984375 11.85546875 C1.64998908 9.34025719 0.83991029 6.71355632 0 4 C-0.33 3.34 -0.66 2.68 -1 2 C-5.82360189 1.80705592 -9.49646738 2.24252386 -14 4 Z " fill="#EDCF56" transform="translate(80,76)"/>
<path d="M0 0 C0.66 0.66 1.32 1.32 2 2 C2.99 2.33 3.98 2.66 5 3 C5 5.64 5 8.28 5 11 C4.37609375 11.23460938 3.7521875 11.46921875 3.109375 11.7109375 C0.39744059 13.36823075 0.11024003 14.6141599 -0.75 17.625 C-0.99234375 18.44226563 -1.2346875 19.25953125 -1.484375 20.1015625 C-1.65453125 20.72804688 -1.8246875 21.35453125 -2 22 C-2.99 22 -3.98 22 -5 22 C-5 18.37 -5 14.74 -5 11 C-5.66 10.67 -6.32 10.34 -7 10 C-7 8.35 -7 6.7 -7 5 C-6.34 5 -5.68 5 -5 5 C-5 4.34 -5 3.68 -5 3 C-6.98 3 -8.96 3 -11 3 C-7.68107147 -0.31892853 -4.50775405 -0.28772898 0 0 Z " fill="#38544B" transform="translate(71,91)"/>
<path d="M0 0 C0.33 0.66 0.66 1.32 1 2 C1.66 2 2.32 2 3 2 C2.68853528 3.89600369 2.37578283 5.79179587 2.0625 7.6875 C1.88847656 8.74324219 1.71445313 9.79898438 1.53515625 10.88671875 C1.06832879 13.60249604 0.55577384 16.30124235 0 19 C1.32 19 2.64 19 4 19 C4.33 21.31 4.66 23.62 5 26 C2.03 26 -0.94 26 -4 26 C-4.10901505 23.16560863 -4.18777904 20.33549797 -4.25 17.5 C-4.28351562 16.70851563 -4.31703125 15.91703125 -4.3515625 15.1015625 C-4.45153439 9.00327706 -3.06910431 5.2682263 0 0 Z " fill="#435340" transform="translate(4,102)"/>
<path d="M0 0 C3.24107719 3.58833546 5.01778234 9.26672697 6 14 C5.578125 16.27734375 5.578125 16.27734375 5 18 C2.13965435 12.66068812 0.26869235 7.92056432 -1 2 C-1.60328125 2.144375 -2.2065625 2.28875 -2.828125 2.4375 C-4.02695313 2.7159375 -4.02695313 2.7159375 -5.25 3 C-6.03890625 3.185625 -6.8278125 3.37125 -7.640625 3.5625 C-10 4 -10 4 -14 4 C-14 4.66 -14 5.32 -14 6 C-15.26839526 6.50615298 -16.53983102 7.00469099 -17.8125 7.5 C-18.87404297 7.91765625 -18.87404297 7.91765625 -19.95703125 8.34375 C-22 9 -22 9 -25 9 C-24.67 10.32 -24.34 11.64 -24 13 C-21.03 13.495 -21.03 13.495 -18 14 C-20 16 -20 16 -23.0625 16.1875 C-26 16 -26 16 -27 15 C-27.04092937 12.66702567 -27.04241723 10.33294775 -27 8 C-8.9573991 -1.71524664 -8.9573991 -1.71524664 0 0 Z " fill="#CEB24E" transform="translate(80,76)"/>
<path d="M0 0 C2.97 0.495 2.97 0.495 6 1 C5.34 1.66 4.68 2.32 4 3 C3.83322718 6.58343976 3.83322718 6.58343976 4 10 C7.36168974 10.16008046 9.80451205 10.06923531 13 8.9375 C16.49258381 7.84606756 18.50893649 7.96854942 22 9 C22.99 10.485 22.99 10.485 24 12 C23.01 12 22.02 12 21 12 C21 11.34 21 10.68 21 10 C19.54096742 10.30921884 18.08279278 10.62248799 16.625 10.9375 C15.81289062 11.11152344 15.00078125 11.28554687 14.1640625 11.46484375 C11.970537 11.92330693 11.970537 11.92330693 10 13 C8.45976004 13.06950541 6.91665012 13.08452357 5.375 13.0625 C4.14910156 13.04896484 4.14910156 13.04896484 2.8984375 13.03515625 C1.95871094 13.01775391 1.95871094 13.01775391 1 13 C-0.32229189 10.35541621 -0.09677194 8.32238699 -0.0625 5.375 C-0.05347656 4.37210937 -0.04445312 3.36921875 -0.03515625 2.3359375 C-0.02355469 1.56507812 -0.01195312 0.79421875 0 0 Z M-1 13 C-0.34 13 0.32 13 1 13 C1 13.66 1 14.32 1 15 C0.34 15 -0.32 15 -1 15 C-1 14.34 -1 13.68 -1 13 Z " fill="#51573C" transform="translate(50,81)"/>
<path d="M0 0 C0.33 0 0.66 0 1 0 C2.0735426 11.63856502 2.0735426 11.63856502 -0.55859375 14.9765625 C-2.5 16.3125 -2.5 16.3125 -6 18 C-7.31625194 15.36749612 -6.74813658 14.19820944 -6.0625 11.375 C-5.86785156 10.55773437 -5.67320313 9.74046875 -5.47265625 8.8984375 C-5.31667969 8.27195312 -5.16070312 7.64546875 -5 7 C-3.68 6.67 -2.36 6.34 -1 6 C-0.67 4.02 -0.34 2.04 0 0 Z " fill="#3B5238" transform="translate(76,96)"/>
<path d="M0 0 C0.99 0 1.98 0 3 0 C5.32590854 3.63423209 5.16265833 6.77088331 5 11 C2.525 10.01 2.525 10.01 0 9 C-0.33 9.66 -0.66 10.32 -1 11 C-1.99 11 -2.98 11 -4 11 C-2.7874262 7.27566618 -1.49140021 3.62197194 0 0 Z " fill="#48574E" transform="translate(26,53)"/>
<path d="M0 0 C1.65 1.32 3.3 2.64 5 4 C4.34 4 3.68 4 3 4 C2.731875 5.134375 2.46375 6.26875 2.1875 7.4375 C1.795625 8.613125 1.40375 9.78875 1 11 C0.01 11.33 -0.98 11.66 -2 12 C-3.66710346 13.49985609 -3.66710346 13.49985609 -5 15 C-5.33 14.34 -5.66 13.68 -6 13 C-5.10333658 10.75689987 -4.10853317 8.55245679 -3.0625 6.375 C-2.49660156 5.18648438 -1.93070313 3.99796875 -1.34765625 2.7734375 C-0.90292969 1.85820313 -0.45820313 0.94296875 0 0 Z " fill="#495750" transform="translate(19,69)"/>
<path d="M0 0 C0.33 0.66 0.66 1.32 1 2 C1.66 2 2.32 2 3 2 C4.06775224 3.96466413 5.06553465 5.96855359 6 8 C5.67 8.66 5.34 9.32 5 10 C2.67624308 10.39460023 0.3406065 10.72230092 -2 11 C-3.33917261 11.30903983 -4.67653254 11.62942911 -6 12 C-6 10.68 -6 9.36 -6 8 C-5.34 8 -4.68 8 -4 8 C-3.67 7.34 -3.34 6.68 -3 6 C-3 6.99 -3 7.98 -3 9 C-1.68 9 -0.36 9 1 9 C0.67 6.03 0.34 3.06 0 0 Z " fill="#ECC24D" transform="translate(86,94)"/>
<path d="M0 0 C0 0.66 0 1.32 0 2 C-3 4 -3 4 -6.125 4.5 C-7.07375 4.665 -8.0225 4.83 -9 5 C-9.33 5.66 -9.66 6.32 -10 7 C-10.99 7 -11.98 7 -13 7 C-13.33 5.68 -13.66 4.36 -14 3 C-9.77083105 0.3567694 -4.91644565 0 0 0 Z " fill="#FCCA22" transform="translate(70,82)"/>
<path d="M0 0 C0.9075 0.185625 1.815 0.37125 2.75 0.5625 C5.68314324 0.95734621 7.2644657 0.94691572 10 0 C9.34 1.32 8.68 2.64 8 4 C8.66 4 9.32 4 10 4 C10.33 5.32 10.66 6.64 11 8 C6.76570244 6.68938409 2.92592596 5.05643741 -1 3 C-0.67 2.01 -0.34 1.02 0 0 Z " fill="#535E56" transform="translate(45,105)"/>
<path d="M0 0 C0.99 0.495 0.99 0.495 2 1 C3.28317892 4.84953676 3.06643637 7.94738135 3 12 C3.7425 11.649375 4.485 11.29875 5.25 10.9375 C8.21122875 9.9279902 9.12062561 10.12019116 12 11 C10.5437455 11.67119549 9.08492133 12.33681807 7.625 13 C6.40683594 13.556875 6.40683594 13.556875 5.1640625 14.125 C3 15 3 15 1 15 C0.67 10.05 0.34 5.1 0 0 Z " fill="#CFB854" transform="translate(76,94)"/>
<path d="M0 0 C2.93200474 2.85276137 5.64315404 5.65079784 8 9 C5.36 9 2.72 9 0 9 C0 6.03 0 3.06 0 0 Z " fill="#F9FBF9" transform="translate(0,119)"/>
<path d="M0 0 C2 2 2 2 3 5 C1.02 5 -0.96 5 -3 5 C-3.33 4.34 -3.66 3.68 -4 3 C-6.31 3 -8.62 3 -11 3 C-7.68107147 -0.31892853 -4.50775405 -0.28772898 0 0 Z " fill="#30615E" transform="translate(71,91)"/>
<path d="M0 0 C3.3125 -0.3125 3.3125 -0.3125 7 0 C10.24107719 3.58833546 12.01778234 9.26672697 13 14 C12.578125 16.27734375 12.578125 16.27734375 12 18 C8.93197901 12.37529486 7.10938353 7.30596952 6 1 C4.02 1 2.04 1 0 1 C0 0.67 0 0.34 0 0 Z " fill="#DEC460" transform="translate(73,76)"/>
<path d="M0 0 C2.96052484 3.36423277 3.92289822 6.69159287 5 11 C4.34 11 3.68 11 3 11 C2.67 11.66 2.34 12.32 2 13 C0.24252386 8.49646738 -0.19294408 4.82360189 0 0 Z M-1 12 C-0.34 12 0.32 12 1 12 C0.67 12.99 0.34 13.98 0 15 C-0.33 14.01 -0.66 13.02 -1 12 Z " fill="#46544A" transform="translate(99,47)"/>
<path d="M0 0 C0 2.31 0 4.62 0 7 C-2.31 7 -4.62 7 -7 7 C-7 4 -7 4 -5.1875 1.8125 C-3 0 -3 0 0 0 Z " fill="#E9EDE7" transform="translate(128,121)"/>
<path d="M0 0 C1.79133978 -0.05391993 3.58313899 -0.09275571 5.375 -0.125 C6.37273438 -0.14820312 7.37046875 -0.17140625 8.3984375 -0.1953125 C11 0 11 0 13 2 C8.82262526 3.59138085 5.46839215 4.21278058 1 4 C0.67 2.68 0.34 1.36 0 0 Z " fill="#364642" transform="translate(51,78)"/>
<path d="M0 0 C2.22825644 2.22825644 2.69239369 3.65761628 3.625 6.625 C3.88539062 7.44226563 4.14578125 8.25953125 4.4140625 9.1015625 C4.60742188 9.72804688 4.80078125 10.35453125 5 11 C4.01 11.66 3.02 12.32 2 13 C1.34 12.67 0.68 12.34 0 12 C0.020625 11.113125 0.04125 10.22625 0.0625 9.3125 C0.09927383 6.06351059 0.09927383 6.06351059 -0.5625 3.1875 C-0.706875 2.465625 -0.85125 1.74375 -1 1 C-0.67 0.67 -0.34 0.34 0 0 Z " fill="#4A554D" transform="translate(115,83)"/>
<path d="M0 0 C0.99 0.495 0.99 0.495 2 1 C2.33 1.99 2.66 2.98 3 4 C3.66 4.33 4.32 4.66 5 5 C6.54828113 8.78468721 7.24012841 11.91781703 7 16 C5 13 5 13 5 11 C4.34 11 3.68 11 3 11 C2.49384702 9.73160474 1.99530901 8.46016898 1.5 7.1875 C1.2215625 6.47980469 0.943125 5.77210937 0.65625 5.04296875 C0 3 0 3 0 0 Z " fill="#767144" transform="translate(84,85)"/>
<path d="M0 0 C4 1 4 1 6 3 C6.125 5.625 6.125 5.625 6 8 C4.68 8 3.36 8 2 8 C1.34 5.36 0.68 2.72 0 0 Z " fill="#3B593D" transform="translate(88,88)"/>
<path d="M0 0 C3.69230769 0.69230769 3.69230769 0.69230769 5 2 C5.04063832 3.66617115 5.042721 5.33388095 5 7 C3.68 7 2.36 7 1 7 C0.34 5.02 -0.32 3.04 -1 1 C-0.67 0.67 -0.34 0.34 0 0 Z " fill="#FEC627" transform="translate(82,96)"/>
<path d="M0 0 C0.33 0.66 0.66 1.32 1 2 C0.06027344 2.19916016 0.06027344 2.19916016 -0.8984375 2.40234375 C-2.12433594 2.66724609 -2.12433594 2.66724609 -3.375 2.9375 C-4.18710938 3.11152344 -4.99921875 3.28554687 -5.8359375 3.46484375 C-8.029463 3.92330693 -8.029463 3.92330693 -10 5 C-11.99960012 5.039992 -14.00047242 5.04346799 -16 5 C-14.68 4.67 -13.36 4.34 -12 4 C-12 3.34 -12 2.68 -12 2 C-9.56612247 0.78306124 -7.58161154 0.68040104 -4.875 0.4375 C-3.96492188 0.35371094 -3.05484375 0.26992187 -2.1171875 0.18359375 C-1.06917969 0.09271484 -1.06917969 0.09271484 0 0 Z " fill="#F5EBC6" transform="translate(78,74)"/>
<path d="M0 0 C1.53656962 2.4404341 2.02089707 3.70744102 1.8125 6.625 C1 9 1 9 -2 11 C-2.68707555 8.50935112 -3 6.62113708 -3 4 C-2.34 4 -1.68 4 -1 4 C-0.67 2.68 -0.34 1.36 0 0 Z " fill="#344B3A" transform="translate(51,57)"/>
<path d="M0 0 C0.33 0.66 0.66 1.32 1 2 C1.66 2 2.32 2 3 2 C2.67 3.65 2.34 5.3 2 7 C0.68 7.33 -0.64 7.66 -2 8 C-2 8.66 -2 9.32 -2 10 C-2.66 10 -3.32 10 -4 10 C-2.66666667 6.66666667 -1.33333333 3.33333333 0 0 Z " fill="#5E685D" transform="translate(4,102)"/>
<path d="M0 0 C2.29633824 3.44450737 2.54016485 5.93812283 3 10 C1.68 9.67 0.36 9.34 -1 9 C-1 5.88772805 -0.54372951 3.05847848 0 0 Z " fill="#F1F4E6" transform="translate(75,65)"/>
<path d="M0 0 C0.99 0 1.98 0 3 0 C3 0.66 3 1.32 3 2 C4.32 2 5.64 2 7 2 C7.33 4.31 7.66 6.62 8 9 C4.36905358 6.35039045 2.10148204 3.98175544 0 0 Z " fill="#646E64" transform="translate(1,119)"/>
<path d="M0 0 C0.33 0 0.66 0 1 0 C1 4.29 1 8.58 1 13 C0.01 13.495 0.01 13.495 -1 14 C-1.66 13.34 -2.32 12.68 -3 12 C-2.34 12 -1.68 12 -1 12 C-1.33 11.01 -1.66 10.02 -2 9 C-1.66015625 6.73828125 -1.66015625 6.73828125 -1.0625 4.3125 C-0.86785156 3.50425781 -0.67320313 2.69601563 -0.47265625 1.86328125 C-0.31667969 1.24839844 -0.16070312 0.63351563 0 0 Z " fill="#52592B" transform="translate(76,96)"/>
<path d="M0 0 C2 2 2 2 2.1953125 3.9453125 C2.13020833 5.96354167 2.06510417 7.98177083 2 10 C1.34 9.67 0.68 9.34 0 9 C-0.73075648 6.6859378 -1.40138258 4.35171131 -2 2 C-1.34 1.34 -0.68 0.68 0 0 Z " fill="#EFF4EF" transform="translate(126,99)"/>
<path d="M0 0 C2.4375 0.375 2.4375 0.375 5 1 C5.33 1.66 5.66 2.32 6 3 C4.02 3.99 4.02 3.99 2 5 C2 5.99 2 6.98 2 8 C1.01 7.67 0.02 7.34 -1 7 C-0.67 4.69 -0.34 2.38 0 0 Z " fill="#44584B" transform="translate(33,98)"/>
<path d="M0 0 C4.24618116 0.06826658 4.24618116 0.06826658 6.625 2.375 C6.934375 3.035 7.24375 3.695 7.5625 4.375 C7.2325 5.035 6.9025 5.695 6.5625 6.375 C5.9025 5.715 5.2425 5.055 4.5625 4.375 C0.54391147 1.69594098 -1.69055716 2.05317337 -6.4375 2.375 C-4.03403621 -0.02846379 -3.29849805 0.05416253 0 0 Z " fill="#BDB362" transform="translate(68.4375,87.625)"/>
<path d="M0 0 C2.31 0 4.62 0 7 0 C7.33 1.65 7.66 3.3 8 5 C7.01 5 6.02 5 5 5 C4.67 4.34 4.34 3.68 4 3 C1.97536745 2.34786708 1.97536745 2.34786708 0 2 C0 1.34 0 0.68 0 0 Z " fill="#FBCA2D" transform="translate(72,78)"/>
<path d="M0 0 C2 1.625 2 1.625 4 4 C4.25 7.25 4.25 7.25 4 10 C1.41050731 8.70525365 1.03964236 7.67336607 0 5 C-0.125 2.25 -0.125 2.25 0 0 Z " fill="#47574A" transform="translate(84,80)"/>
<path d="M0 0 C2.15377564 2.62198774 3.40072174 4.64404172 4 8 C2.68 8 1.36 8 0 8 C-0.38063221 5.6739143 -0.71269945 3.33944736 -1 1 C-0.67 0.67 -0.34 0.34 0 0 Z " fill="#57635A" transform="translate(122,99)"/>
<path d="M0 0 C0.66 0.99 1.32 1.98 2 3 C1.01 3 0.02 3 -1 3 C-1 2.34 -1 1.68 -1 1 C-3.97 1 -6.94 1 -10 1 C-5.66437185 -1.16781407 -4.50491 -1.27312674 0 0 Z " fill="#5B6946" transform="translate(72,90)"/>
<path d="M0 0 C-2.71182212 2.60334924 -3.89133813 2.99456691 -7.75 3.1875 C-8.8225 3.125625 -9.895 3.06375 -11 3 C-7.63114177 -0.36885823 -4.54278442 -0.10095076 0 0 Z " fill="#445B5A" transform="translate(71,91)"/>
<path d="M0 0 C0.66 0.33 1.32 0.66 2 1 C1.43628586 4.26954202 0.50037734 5.82575883 -2 8 C-2.33 7.34 -2.66 6.68 -3 6 C-2.06553465 3.96855359 -1.06775224 1.96466413 0 0 Z " fill="#5A645D" transform="translate(16,76)"/>
<path d="M0 0 C0.99 0.66 1.98 1.32 3 2 C2.34 3.32 1.68 4.64 1 6 C0.01 6 -0.98 6 -2 6 C-1.34 4.02 -0.68 2.04 0 0 Z " fill="#4D5A4F" transform="translate(33,38)"/>
<path d="M0 0 C0.66 0 1.32 0 2 0 C2.33 0.99 2.66 1.98 3 3 C2.34 3 1.68 3 1 3 C0.67 3.99 0.34 4.98 0 6 C-0.99 5.67 -1.98 5.34 -3 5 C-1.625 2.5 -1.625 2.5 0 0 Z " fill="#4A584C" transform="translate(56,0)"/>
<path d="M0 0 C1.65 1.65 3.3 3.3 5 5 C4.01 5.66 3.02 6.32 2 7 C0 4 0 4 0 0 Z " fill="#E4E9E2" transform="translate(0,119)"/>
<path d="M0 0 C1.98 0.66 3.96 1.32 6 2 C4.1875 3.0625 4.1875 3.0625 2 4 C1.01 3.67 0.02 3.34 -1 3 C-0.67 2.01 -0.34 1.02 0 0 Z " fill="#486063" transform="translate(53,75)"/>
<path d="M0 0 C1.5625 1.6875 1.5625 1.6875 3 4 C2.6875 6.75 2.6875 6.75 2 9 C0 7 0 7 -0.125 3.375 C-0.08375 2.26125 -0.0425 1.1475 0 0 Z " fill="#58635D" transform="translate(99,47)"/>
<path d="M0 0 C1.4540625 0.0309375 1.4540625 0.0309375 2.9375 0.0625 C2.1021875 0.43375 2.1021875 0.43375 1.25 0.8125 C-1.46221127 2.27856015 -3.69837365 4.09239471 -6.0625 6.0625 C-3.76028481 0.07674051 -3.76028481 0.07674051 0 0 Z " fill="#CBD4CC" transform="translate(64.0625,48.9375)"/>
</svg>
