<?xml version="1.0" encoding="UTF-8"?>
<svg version="1.1" xmlns="http://www.w3.org/2000/svg" width="16" height="16">
<path d="M0 0 C2.1991256 1.570804 2.89027023 2.46321384 3.43359375 5.12109375 C3.43987697 8.84704141 3.41151974 11.29698712 1.5 14.5625 C-2.05904742 16.60895227 -4.99242981 16.64055425 -9 16 C-11.5 15.0625 -11.5 15.0625 -13 13 C-13.77653059 8.72908177 -13.70279283 5.25280461 -11.5625 1.4375 C-7.85451454 -0.6425894 -4.16013014 -0.85041334 0 0 Z " fill="#067DBA" transform="translate(13,0)"/>
<path d="M0 0 C0.94875 0.04125 1.8975 0.0825 2.875 0.125 C3.535 1.445 4.195 2.765 4.875 4.125 C1.905 3.63 1.905 3.63 -1.125 3.125 C-1.455 4.775 -1.785 6.425 -2.125 8.125 C-0.805 8.455 0.515 8.785 1.875 9.125 C1.875 8.465 1.875 7.805 1.875 7.125 C1.215 7.125 0.555 7.125 -0.125 7.125 C-0.125 6.465 -0.125 5.805 -0.125 5.125 C1.525 5.125 3.175 5.125 4.875 5.125 C5.0625 7.5 5.0625 7.5 4.875 10.125 C1.875 12.125 1.875 12.125 -1.25 11.875 C-2.673125 11.50375 -2.673125 11.50375 -4.125 11.125 C-5.63162097 8.11175805 -5.30270373 5.44213623 -5.125 2.125 C-3.125 0.125 -3.125 0.125 0 0 Z " fill="#E0ECF6" transform="translate(8.125,1.875)"/>
<path d="M0 0 C0.99 0.33 1.98 0.66 3 1 C3 1.66 3 2.32 3 3 C2.34 3 1.68 3 1 3 C1 3.66 1 4.32 1 5 C1.66 5 2.32 5 3 5 C3 5.66 3 6.32 3 7 C1.35 6.67 -0.3 6.34 -2 6 C-1.125 1.125 -1.125 1.125 0 0 Z " fill="#3397CF" transform="translate(7,4)"/>
<path d="M0 0 C2.97 0 5.94 0 9 0 C9 0.99 9 1.98 9 3 C6.36 3 3.72 3 1 3 C0.67 2.01 0.34 1.02 0 0 Z " fill="#0482C2" transform="translate(3,13)"/>
<path d="M0 0 C-2.64 1.65 -5.28 3.3 -8 5 C-5.69411765 -1.42352941 -5.69411765 -1.42352941 0 0 Z " fill="#006DA4" transform="translate(8,1)"/>
</svg>
